<svg height="512" viewBox="0 0 512 512" width="512" xmlns="http://www.w3.org/2000/svg"><rect fill="#ebebeb" height="352" rx="16" width="400" x="56" y="89"/><path d="m72 89h368a16 16 0 0 1 16 16v48a0 0 0 0 1 0 0h-400a0 0 0 0 1 0 0v-48a16 16 0 0 1 16-16z" fill="#de4c3b"/><g fill="#ebebeb"><rect height="64" rx="16" width="32" x="112" y="57"/><rect height="64" rx="16" width="32" x="200" y="57"/><rect height="64" rx="16" width="32" x="280" y="57"/><rect height="64" rx="16" width="32" x="360" y="57"/></g><path d="m128 73a16 16 0 0 0 -16 16v16a16 16 0 0 0 32 0v-16a16 16 0 0 0 -16-16z" fill="#dbdbdb"/><path d="m216 73a16 16 0 0 0 -16 16v16a16 16 0 0 0 32 0v-16a16 16 0 0 0 -16-16z" fill="#dbdbdb"/><path d="m296 73a16 16 0 0 0 -16 16v16a16 16 0 0 0 32 0v-16a16 16 0 0 0 -16-16z" fill="#dbdbdb"/><path d="m376 73a16 16 0 0 0 -16 16v16a16 16 0 0 0 32 0v-16a16 16 0 0 0 -16-16z" fill="#dbdbdb"/><path d="m256.016 381.938a87.7 87.7 0 0 1 -51.469-16.719 8 8 0 1 1 9.375-12.969 72 72 0 1 0 -29.742-53.336 7.992 7.992 0 0 1 -7.407 8.547 7.867 7.867 0 0 1 -8.546-7.406 87.914 87.914 0 1 1 87.789 81.883z" fill="#6a9876"/><path d="m193.07 385a8.012 8.012 0 0 1 -7.882-6.633l-8.75-50.476a8 8 0 0 1 9.343-9.235l45.86 8.539a8.007 8.007 0 0 1 4.531 13.172l-37.11 41.938a7.992 7.992 0 0 1 -5.992 2.695z" fill="#6a9876"/><path d="m288.039 325.82a7.954 7.954 0 0 1 -4.789-1.6l-32-24a8 8 0 0 1 -3.2-6.4v-48a8 8 0 0 1 16 0v44l28.8 21.6a8 8 0 0 1 -4.805 14.4z" fill="#6a9876"/><path d="m336 385h16v16h-16z" fill="#cdcdcd"/><path d="m368 385h16v16h-16z" fill="#cdcdcd"/><path d="m400 385h16v16h-16z" fill="#cdcdcd"/></svg>