<?xml version="1.0" encoding="iso-8859-1"?>
<!-- Generator: Adobe Illustrator 19.0.0, SVG Export Plug-In . SVG Version: 6.00 Build 0)  -->
<svg version="1.1" id="Capa_1" xmlns="http://www.w3.org/2000/svg" xmlns:xlink="http://www.w3.org/1999/xlink" x="0px" y="0px"
	 viewBox="0 0 513.6 513.6" style="enable-background:new 0 0 513.6 513.6;" xml:space="preserve">
<rect x="8.8" y="124.8" style="fill:#FFFFFF;" width="496" height="380.8"/>
<path style="fill:#193651;" d="M512.8,513.6H0.8V116.8h512V513.6z M16.8,497.6h480V132.8h-480V497.6z"/>
<rect x="48.8" y="164.8" style="fill:#27A2DE;" width="416" height="300.8"/>
<g>
	<rect x="348" y="212" style="fill:#FFFFFF;" width="87.2" height="87.2"/>
	<rect x="212.8" y="212" style="fill:#FFFFFF;" width="87.2" height="87.2"/>
	<rect x="78.4" y="330.4" style="fill:#FFFFFF;" width="87.2" height="87.2"/>
	<rect x="212.8" y="330.4" style="fill:#FFFFFF;" width="87.2" height="87.2"/>
	<rect x="8.8" y="46.4" style="fill:#FFFFFF;" width="496" height="77.6"/>
</g>
<path style="fill:#193651;" d="M512.8,132H0.8V38.4h512V132z M16.8,116h480V54.4h-480V116z"/>
<rect x="380.8" y="8" style="fill:#FFFFFF;" width="42.4" height="76.8"/>
<path style="fill:#193651;" d="M430.4,93.6H372V0h58.4V93.6z M388.8,77.6h26.4V16h-26.4V77.6z"/>
<rect x="91.2" y="8" style="fill:#FFFFFF;" width="42.4" height="76.8"/>
<path style="fill:#193651;" d="M140.8,93.6H82.4V0h58.4V93.6z M99.2,77.6h26.4V16H99.2V77.6z"/>
<rect x="383.2" y="248" style="fill:#193651;" width="16" height="16"/>
<rect x="248.8" y="366.4" style="fill:#193651;" width="16" height="16"/>
<rect x="248.8" y="248" style="fill:#193651;" width="16" height="16"/>
<rect x="114.4" y="366.4" style="fill:#193651;" width="16" height="16"/>
<g>
</g>
<g>
</g>
<g>
</g>
<g>
</g>
<g>
</g>
<g>
</g>
<g>
</g>
<g>
</g>
<g>
</g>
<g>
</g>
<g>
</g>
<g>
</g>
<g>
</g>
<g>
</g>
<g>
</g>
</svg>
