<?xml version="1.0"?>
<svg xmlns="http://www.w3.org/2000/svg" height="512px" viewBox="0 -32 512 511" width="512px"><g><path d="m32.03125 367.859375h95.09375v-95.09375h-95.09375zm15.015625-80.078125h65.0625v65.0625h-65.0625zm0 0" data-original="#000000" class="active-path" data-old_color="#000000" fill="#BDBDBD"/><path d="m15.015625 95.59375h-15.015625v304.296875h296.289062v-15.015625h-281.273437zm0 0" data-original="#000000" class="active-path" data-old_color="#000000" fill="#BDBDBD"/><path d="m384.375 223.71875h15.015625v-223.21875h-399.390625v79.078125h384.375zm-369.359375-159.15625v-49.046875h369.359375v49.046875zm0 0" data-original="#000000" class="active-path" data-old_color="#000000" fill="#BDBDBD"/><path d="m40.039062 32.53125h16.015626v15.015625h-16.015626zm0 0" data-original="#000000" class="active-path" data-old_color="#000000" fill="#BDBDBD"/><path d="m72.070312 32.53125h16.015626v15.015625h-16.015626zm0 0" data-original="#000000" class="active-path" data-old_color="#000000" fill="#BDBDBD"/><path d="m104.101562 32.53125h16.015626v15.015625h-16.015626zm0 0" data-original="#000000" class="active-path" data-old_color="#000000" fill="#BDBDBD"/><path d="m32.03125 232.726562h320.3125v15.015626h-320.3125zm0 0" data-original="#000000" class="active-path" data-old_color="#000000" fill="#BDBDBD"/><path d="m144.140625 312.804688h144.140625v15.015624h-144.140625zm0 0" data-original="#000000" class="active-path" data-old_color="#000000" fill="#BDBDBD"/><path d="m144.140625 272.765625h160.15625v15.015625h-160.15625zm0 0" data-original="#000000" class="active-path" data-old_color="#000000" fill="#BDBDBD"/><path d="m144.140625 352.84375h144.140625v15.015625h-144.140625zm0 0" data-original="#000000" class="active-path" data-old_color="#000000" fill="#BDBDBD"/><path d="m64.0625 103.601562v64.0625h64.0625v40.039063h15.015625v-104.101563h-15.015625v49.046876h-49.046875v-49.046876zm0 0" data-original="#000000" class="active-path" data-old_color="#000000" fill="#BDBDBD"/><path d="m256.25 103.601562v64.0625h64.0625v40.039063h15.015625v-104.101563h-15.015625v49.046876h-49.046875v-49.046876zm0 0" data-original="#000000" class="active-path" data-old_color="#000000" fill="#BDBDBD"/><path d="m160.15625 104.601562v103.101563h79.078125v-103.101563zm64.0625 88.085938h-49.046875v-73.070312h49.046875zm0 0" data-original="#000000" class="active-path" data-old_color="#000000" fill="#BDBDBD"/><path d="m408.398438 240.234375c-57.125 0-103.601563 46.476563-103.601563 103.601563s46.476563 103.601562 103.601563 103.601562 103.601562-46.476562 103.601562-103.601562-46.476562-103.601563-103.601562-103.601563zm0 192.1875c-48.847657 0-88.585938-39.738281-88.585938-88.585937 0-48.847657 39.738281-88.585938 88.585938-88.585938 48.847656 0 88.585937 39.738281 88.585937 88.585938 0 48.847656-39.738281 88.585937-88.585937 88.585937zm0 0" data-original="#000000" class="active-path" data-old_color="#000000" fill="#BDBDBD"/><path d="m408.398438 272.265625c-39.464844 0-71.570313 32.105469-71.570313 71.570313 0 39.460937 32.105469 71.570312 71.570313 71.570312 39.464843 0 71.570312-32.109375 71.570312-71.570312 0-39.464844-32.105469-71.570313-71.570312-71.570313zm0 128.125c-31.183594 0-56.554688-25.371094-56.554688-56.554687 0-31.183594 25.371094-56.554688 56.554688-56.554688 31.183593 0 56.554687 25.371094 56.554687 56.554688 0 31.183593-25.371094 56.554687-56.554687 56.554687zm0 0" data-original="#000000" class="active-path" data-old_color="#000000" fill="#BDBDBD"/><path d="m400.390625 303.796875h15.015625v48.046875h-15.015625zm0 0" data-original="#000000" class="active-path" data-old_color="#000000" fill="#BDBDBD"/><path d="m400.390625 367.859375h15.015625v16.015625h-15.015625zm0 0" data-original="#000000" class="active-path" data-old_color="#000000" fill="#BDBDBD"/></g> </svg>
