<?xml version="1.0" encoding="UTF-8" standalone="no"?>
<!DOCTYPE svg PUBLIC "-//W3C//DTD SVG 20010904//EN" "http://www.w3.org/TR/2001/REC-SVG-20010904/DTD/svg10.dtd">
<svg version="1.0" xmlns="http://www.w3.org/2000/svg" width="1280.000000pt" height="1280.000000pt" viewBox="0 0 1280.000000 1280.000000" preserveAspectRatio="xMidYMid meet">
<metadata>
Created by potrace 1.15, written by Peter Selinger 2001-2017
</metadata>
<g transform="translate(0.000000,1280.000000) scale(0.100000,-0.100000)" fill="#009688" stroke="none">
<path d="M6095 12794 c-27 -2 -115 -8 -195 -14 -1261 -93 -2504 -584 -3500 -1384 -454 -365 -875 -810 -1215 -1287 -1290 -1808 -1545 -4169 -673 -6221 75 -176 232 -491 328 -658 755 -1314 1927 -2308 3343 -2834 1416 -526 3018 -526 4434 0 231 86 350 137 588 253 1696 825 2946 2367 3404 4199 202 806 244 1674 120 2502 -257 1716 -1200 3252 -2620 4265 -801 572 -1743 957 -2699 1105 -350 54 -550 70 -935 74 -181 2 -352 2 -380 0z"/>
</g>
</svg>