<?xml version="1.0" encoding="iso-8859-1"?>
<!-- Generator: Adobe Illustrator 19.0.0, SVG Export Plug-In . SVG Version: 6.00 Build 0)  -->
<svg version="1.1" id="Capa_1" xmlns="http://www.w3.org/2000/svg" xmlns:xlink="http://www.w3.org/1999/xlink" x="0px" y="0px"
	 viewBox="0 0 512 512" style="enable-background:new 0 0 512 512;" xml:space="preserve">
<g>
	<g>
		<path d="M432,32h-72V8c0-4.418-3.582-8-8-8H160c-4.418,0-8,3.582-8,8v24H80c-13.255,0-24,10.745-24,24v432
			c0,13.255,10.745,24,24,24h352c13.255,0,24-10.745,24-24V56C456,42.745,445.255,32,432,32z M160,80h160V64H168V16h176v56
			c0,4.418,3.582,8,8,8h16v16H144V80H160z M376,112c4.418,0,8-3.582,8-8h16v352H112V104h16c0,4.418,3.582,8,8,8H376z M440,488
			c0,4.418-3.582,8-8,8H80c-4.418,0-8-3.582-8-8V56c0-4.418,3.582-8,8-8h72v16h-16c-4.418,0-8,3.582-8,8v16h-24
			c-4.418,0-8,3.582-8,8v368c0,4.418,3.582,8,8,8h304c4.418,0,8-3.582,8-8V96c0-4.418-3.582-8-8-8h-24V72c0-4.418-3.582-8-8-8h-16
			V48h72c4.418,0,8,3.582,8,8V488z"/>
	</g>
</g>
<g>
	<g>
		<path d="M200,368h-48c-4.418,0-8,3.582-8,8v48c0,4.418,3.582,8,8,8h48c4.418,0,8-3.582,8-8v-48C208,371.582,204.418,368,200,368z
			 M192,416h-32v-32h32V416z"/>
	</g>
</g>
<g>
	<g>
		<rect x="224" y="376" width="16" height="16"/>
	</g>
</g>
<g>
	<g>
		<rect x="256" y="376" width="16" height="16"/>
	</g>
</g>
<g>
	<g>
		<rect x="224" y="408" width="144" height="16"/>
	</g>
</g>
<g>
	<g>
		<path d="M347.312,248l-29.656-29.656c-3.124-3.123-8.188-3.123-11.312,0L264,260.688l-58.344-58.344
			c-3.124-3.123-8.188-3.123-11.312,0L156.688,240H136v16h24c2.122,0,4.156-0.844,5.656-2.344L200,219.312l58.344,58.344
			c1.5,1.5,3.534,2.344,5.656,2.344s4.156-0.844,5.656-2.344L312,235.312l26.344,26.344c1.5,1.5,3.534,2.344,5.656,2.344h32v-16
			H347.312z"/>
	</g>
</g>
<g>
	<g>
		<path d="M216,136h-32c-4.418,0-8,3.582-8,8v32c0,4.418,3.582,8,8,8h32c4.418,0,8-3.582,8-8v-32C224,139.582,220.418,136,216,136z
			 M208,168h-16v-16h16V168z"/>
	</g>
</g>
<g>
	<g>
		<path d="M328,296h-32c-4.418,0-8,3.582-8,8v32c0,4.418,3.582,8,8,8h32c4.418,0,8-3.582,8-8v-32C336,299.582,332.418,296,328,296z
			 M320,328h-16v-16h16V328z"/>
	</g>
</g>
<g>
	<g>
		<rect x="240" y="136" width="16" height="16"/>
	</g>
</g>
<g>
	<g>
		<rect x="272" y="136" width="16" height="16"/>
	</g>
</g>
<g>
	<g>
		<rect x="240" y="168" width="80" height="16"/>
	</g>
</g>
<g>
	<g>
		<rect x="256" y="328" width="16" height="16"/>
	</g>
</g>
<g>
	<g>
		<rect x="224" y="328" width="16" height="16"/>
	</g>
</g>
<g>
	<g>
		<rect x="192" y="296" width="80" height="16"/>
	</g>
</g>
<g>
</g>
<g>
</g>
<g>
</g>
<g>
</g>
<g>
</g>
<g>
</g>
<g>
</g>
<g>
</g>
<g>
</g>
<g>
</g>
<g>
</g>
<g>
</g>
<g>
</g>
<g>
</g>
<g>
</g>
</svg>
